<mxfile host="app.diagrams.net" modified="2023-09-05T23:18:03.972Z" agent="Mozilla/5.0 (Windows NT 10.0; Win64; x64) AppleWebKit/537.36 (KHTML, like Gecko) Chrome/116.0.0.0 Safari/537.36" etag="TcmZP12hPBmuIWKOF76r" version="21.7.2" type="github">
  <diagram id="prtHgNgQTEPvFCAcTncT" name="Page-1">
    <mxGraphModel dx="1646" dy="790" grid="1" gridSize="10" guides="1" tooltips="1" connect="1" arrows="1" fold="1" page="1" pageScale="1" pageWidth="827" pageHeight="1169" math="0" shadow="0">
      <root>
        <mxCell id="0" />
        <mxCell id="1" parent="0" />
        <mxCell id="dNxyNK7c78bLwvsdeMH5-11" value="Orgchart" style="swimlane;html=1;startSize=20;horizontal=1;containerType=tree;glass=0;" parent="1" vertex="1">
          <mxGeometry x="40" y="80" width="1840" height="450" as="geometry" />
        </mxCell>
        <mxCell id="GGEF6i-dhOF42WEpArN_-3" style="edgeStyle=orthogonalEdgeStyle;rounded=0;orthogonalLoop=1;jettySize=auto;html=1;exitX=0.5;exitY=1;exitDx=0;exitDy=0;" edge="1" parent="dNxyNK7c78bLwvsdeMH5-11" source="dNxyNK7c78bLwvsdeMH5-12" target="GGEF6i-dhOF42WEpArN_-1">
          <mxGeometry relative="1" as="geometry" />
        </mxCell>
        <mxCell id="GGEF6i-dhOF42WEpArN_-7" style="edgeStyle=orthogonalEdgeStyle;rounded=0;orthogonalLoop=1;jettySize=auto;html=1;exitX=0.5;exitY=1;exitDx=0;exitDy=0;" edge="1" parent="dNxyNK7c78bLwvsdeMH5-11" source="dNxyNK7c78bLwvsdeMH5-12" target="GGEF6i-dhOF42WEpArN_-4">
          <mxGeometry relative="1" as="geometry" />
        </mxCell>
        <mxCell id="GGEF6i-dhOF42WEpArN_-16" style="edgeStyle=orthogonalEdgeStyle;rounded=0;orthogonalLoop=1;jettySize=auto;html=1;exitX=0.5;exitY=1;exitDx=0;exitDy=0;" edge="1" parent="dNxyNK7c78bLwvsdeMH5-11" source="dNxyNK7c78bLwvsdeMH5-12" target="GGEF6i-dhOF42WEpArN_-14">
          <mxGeometry relative="1" as="geometry" />
        </mxCell>
        <UserObject label="LUDEÑA RIOS KARLA JANETH&lt;br&gt;&lt;font size=&quot;1&quot; color=&quot;#808080&quot;&gt;&lt;i&gt;Analista de Compras&lt;/i&gt;&lt;/font&gt;" name="Tessa Miller" position="CFO" location="Office 1" email="me@example.com" placeholders="1" link="https://www.draw.io" id="dNxyNK7c78bLwvsdeMH5-12">
          <mxCell style="label;image=https://cdn3.iconfinder.com/data/icons/user-avatars-1/512/users-3-128.png;whiteSpace=wrap;html=1;rounded=0;glass=0;treeMoving=1;treeFolding=1;" parent="dNxyNK7c78bLwvsdeMH5-11" vertex="1">
            <mxGeometry x="840" y="40" width="250" height="70" as="geometry" />
          </mxCell>
        </UserObject>
        <mxCell id="dNxyNK7c78bLwvsdeMH5-15" value="" style="endArrow=blockThin;endFill=1;fontSize=11;edgeStyle=elbowEdgeStyle;elbow=vertical;rounded=0;" parent="dNxyNK7c78bLwvsdeMH5-11" source="dNxyNK7c78bLwvsdeMH5-12" target="dNxyNK7c78bLwvsdeMH5-16" edge="1">
          <mxGeometry relative="1" as="geometry" />
        </mxCell>
        <UserObject label="BARRUTIA VALCARCEL MIGUEL GIANCARLO&lt;br&gt;&lt;font size=&quot;1&quot; color=&quot;#808080&quot;&gt;&lt;i&gt;Supervisor de Seguridad Patrominial&lt;/i&gt;&lt;/font&gt;" name="Evan Valet" position="HR Director" location="Office 4" email="me@example.com" placeholders="1" link="https://www.draw.io" id="dNxyNK7c78bLwvsdeMH5-16">
          <mxCell style="label;image=https://cdn3.iconfinder.com/data/icons/user-avatars-1/512/users-9-2-128.png;whiteSpace=wrap;html=1;rounded=0;glass=0;treeFolding=1;treeMoving=1;" parent="dNxyNK7c78bLwvsdeMH5-11" vertex="1">
            <mxGeometry x="280" y="180" width="210" height="70" as="geometry" />
          </mxCell>
        </UserObject>
        <UserObject label="SUSANIBAR HERRERA JENNY LISZETH&lt;br style=&quot;border-color: var(--border-color);&quot;&gt;&lt;i style=&quot;border-color: var(--border-color); color: rgb(128, 128, 128); font-size: x-small;&quot;&gt;Jefe De Planificación y Control De Producción&lt;/i&gt;" name="Tessa Miller" position="CFO" location="Office 1" email="me@example.com" placeholders="1" link="https://www.draw.io" id="GGEF6i-dhOF42WEpArN_-1">
          <mxCell style="label;image=https://cdn3.iconfinder.com/data/icons/user-avatars-1/512/users-3-128.png;whiteSpace=wrap;html=1;rounded=0;glass=0;treeMoving=1;treeFolding=1;" vertex="1" parent="dNxyNK7c78bLwvsdeMH5-11">
            <mxGeometry x="40" y="180" width="211.5" height="70" as="geometry" />
          </mxCell>
        </UserObject>
        <UserObject label="UGARTE VALENZA SHIARMELY&lt;br&gt;&lt;i style=&quot;color: rgb(128, 128, 128); font-size: x-small;&quot;&gt;Jefe De Investigación y Desarrollo&lt;/i&gt;" name="Tessa Miller" position="CFO" location="Office 1" email="me@example.com" placeholders="1" link="https://www.draw.io" id="GGEF6i-dhOF42WEpArN_-4">
          <mxCell style="label;image=https://cdn3.iconfinder.com/data/icons/user-avatars-1/512/users-3-128.png;whiteSpace=wrap;html=1;rounded=0;glass=0;treeMoving=1;treeFolding=1;" vertex="1" parent="dNxyNK7c78bLwvsdeMH5-11">
            <mxGeometry x="510" y="180" width="211.5" height="70" as="geometry" />
          </mxCell>
        </UserObject>
        <UserObject label="ACEVEDO USCATA DAVID&lt;br&gt;&lt;i style=&quot;color: gray&quot;&gt;&lt;font style=&quot;font-size: 10px;&quot;&gt;Jefe de Mantenimiento y proyectos&lt;/font&gt;&lt;/i&gt;" name="Alison Donovan" position="System Admin" location="Office 3" email="me@example.com" placeholders="1" link="https://www.draw.io" id="dNxyNK7c78bLwvsdeMH5-18">
          <mxCell style="label;image=https://cdn3.iconfinder.com/data/icons/user-avatars-1/512/users-2-128.png;whiteSpace=wrap;html=1;rounded=0;glass=0;" parent="dNxyNK7c78bLwvsdeMH5-11" vertex="1">
            <mxGeometry x="740" y="180" width="200" height="70" as="geometry" />
          </mxCell>
        </UserObject>
        <mxCell id="dNxyNK7c78bLwvsdeMH5-17" value="" style="endArrow=blockThin;endFill=1;fontSize=11;edgeStyle=elbowEdgeStyle;elbow=vertical;rounded=0;" parent="dNxyNK7c78bLwvsdeMH5-11" source="dNxyNK7c78bLwvsdeMH5-12" target="dNxyNK7c78bLwvsdeMH5-18" edge="1">
          <mxGeometry relative="1" as="geometry" />
        </mxCell>
        <UserObject label="WICHE CORIMANYA BETTY NOEMI&lt;br&gt;&lt;i style=&quot;color: rgb(128, 128, 128); font-size: x-small;&quot;&gt;Supervisor Logístico de Eventos&lt;br&gt;&lt;/i&gt;" name="Tessa Miller" position="CFO" location="Office 1" email="me@example.com" placeholders="1" link="https://www.draw.io" id="GGEF6i-dhOF42WEpArN_-8">
          <mxCell style="label;image=https://cdn3.iconfinder.com/data/icons/user-avatars-1/512/users-3-128.png;whiteSpace=wrap;html=1;rounded=0;glass=0;treeMoving=1;treeFolding=1;" vertex="1" parent="dNxyNK7c78bLwvsdeMH5-11">
            <mxGeometry x="970" y="180" width="190" height="70" as="geometry" />
          </mxCell>
        </UserObject>
        <mxCell id="GGEF6i-dhOF42WEpArN_-9" style="edgeStyle=orthogonalEdgeStyle;rounded=0;orthogonalLoop=1;jettySize=auto;html=1;exitX=0.5;exitY=1;exitDx=0;exitDy=0;" edge="1" parent="dNxyNK7c78bLwvsdeMH5-11" source="dNxyNK7c78bLwvsdeMH5-12" target="GGEF6i-dhOF42WEpArN_-8">
          <mxGeometry relative="1" as="geometry">
            <mxPoint x="385" y="120" as="sourcePoint" />
            <mxPoint x="616" y="180" as="targetPoint" />
          </mxGeometry>
        </mxCell>
        <UserObject label="COLINA SANCHEZ NEYDA YUSMARY&lt;br&gt;&lt;i style=&quot;color: rgb(128, 128, 128); font-size: x-small;&quot;&gt;Administrador&lt;br&gt;&lt;/i&gt;" name="Tessa Miller" position="CFO" location="Office 1" email="me@example.com" placeholders="1" link="https://www.draw.io" id="GGEF6i-dhOF42WEpArN_-10">
          <mxCell style="label;image=https://cdn3.iconfinder.com/data/icons/user-avatars-1/512/users-3-128.png;whiteSpace=wrap;html=1;rounded=0;glass=0;treeMoving=1;treeFolding=1;" vertex="1" parent="dNxyNK7c78bLwvsdeMH5-11">
            <mxGeometry x="1190" y="180" width="180" height="70" as="geometry" />
          </mxCell>
        </UserObject>
        <mxCell id="GGEF6i-dhOF42WEpArN_-11" style="edgeStyle=orthogonalEdgeStyle;rounded=0;orthogonalLoop=1;jettySize=auto;html=1;exitX=0.5;exitY=1;exitDx=0;exitDy=0;" edge="1" parent="dNxyNK7c78bLwvsdeMH5-11" source="dNxyNK7c78bLwvsdeMH5-12" target="GGEF6i-dhOF42WEpArN_-10">
          <mxGeometry relative="1" as="geometry">
            <mxPoint x="805" y="120" as="sourcePoint" />
            <mxPoint x="1065" y="180" as="targetPoint" />
          </mxGeometry>
        </mxCell>
        <UserObject label="PINTO LINAREZ YULIANNY MARILIN&lt;br&gt;&lt;i style=&quot;color: rgb(128, 128, 128); font-size: x-small;&quot;&gt;Coordinador de Almacén&lt;br&gt;&lt;/i&gt;" name="Tessa Miller" position="CFO" location="Office 1" email="me@example.com" placeholders="1" link="https://www.draw.io" id="GGEF6i-dhOF42WEpArN_-12">
          <mxCell style="label;image=https://cdn3.iconfinder.com/data/icons/user-avatars-1/512/users-3-128.png;whiteSpace=wrap;html=1;rounded=0;glass=0;treeMoving=1;treeFolding=1;" vertex="1" parent="dNxyNK7c78bLwvsdeMH5-11">
            <mxGeometry x="1400" y="180" width="180" height="70" as="geometry" />
          </mxCell>
        </UserObject>
        <mxCell id="GGEF6i-dhOF42WEpArN_-13" style="edgeStyle=orthogonalEdgeStyle;rounded=0;orthogonalLoop=1;jettySize=auto;html=1;exitX=0.5;exitY=1;exitDx=0;exitDy=0;" edge="1" parent="dNxyNK7c78bLwvsdeMH5-11" source="dNxyNK7c78bLwvsdeMH5-12" target="GGEF6i-dhOF42WEpArN_-12">
          <mxGeometry relative="1" as="geometry">
            <mxPoint x="805" y="120" as="sourcePoint" />
            <mxPoint x="1280" y="180" as="targetPoint" />
          </mxGeometry>
        </mxCell>
        <mxCell id="GGEF6i-dhOF42WEpArN_-55" style="edgeStyle=orthogonalEdgeStyle;rounded=0;orthogonalLoop=1;jettySize=auto;html=1;" edge="1" parent="dNxyNK7c78bLwvsdeMH5-11" source="GGEF6i-dhOF42WEpArN_-14" target="GGEF6i-dhOF42WEpArN_-52">
          <mxGeometry relative="1" as="geometry" />
        </mxCell>
        <UserObject label="DE LA CRUZ VARGAS ESTHEFANY BRILLIT&lt;br&gt;&lt;i style=&quot;color: rgb(128, 128, 128); font-size: x-small;&quot;&gt;Asistente de Calidad&lt;br&gt;&lt;/i&gt;" name="Tessa Miller" position="CFO" location="Office 1" email="me@example.com" placeholders="1" link="https://www.draw.io" id="GGEF6i-dhOF42WEpArN_-14">
          <mxCell style="label;image=https://cdn3.iconfinder.com/data/icons/user-avatars-1/512/users-3-128.png;whiteSpace=wrap;html=1;rounded=0;glass=0;treeMoving=1;treeFolding=1;" vertex="1" parent="dNxyNK7c78bLwvsdeMH5-11">
            <mxGeometry x="1614" y="180" width="196" height="70" as="geometry" />
          </mxCell>
        </UserObject>
        <mxCell id="GGEF6i-dhOF42WEpArN_-35" style="edgeStyle=orthogonalEdgeStyle;rounded=0;orthogonalLoop=1;jettySize=auto;html=1;exitX=0.5;exitY=1;exitDx=0;exitDy=0;" edge="1" target="GGEF6i-dhOF42WEpArN_-36" source="GGEF6i-dhOF42WEpArN_-1" parent="dNxyNK7c78bLwvsdeMH5-11">
          <mxGeometry relative="1" as="geometry">
            <mxPoint x="1005" y="190" as="sourcePoint" />
          </mxGeometry>
        </mxCell>
        <UserObject label="SUSANIBAR HERRERA JENNY LISZETH&lt;br style=&quot;border-color: var(--border-color);&quot;&gt;&lt;i style=&quot;border-color: var(--border-color); color: rgb(128, 128, 128); font-size: x-small;&quot;&gt;Jefe De Planificación y Control De Producción&lt;/i&gt;" name="Tessa Miller" position="CFO" location="Office 1" email="me@example.com" placeholders="1" link="https://www.draw.io" id="GGEF6i-dhOF42WEpArN_-36">
          <mxCell style="label;image=https://cdn3.iconfinder.com/data/icons/user-avatars-1/512/users-3-128.png;whiteSpace=wrap;html=1;rounded=0;glass=0;treeMoving=1;treeFolding=1;" vertex="1" parent="dNxyNK7c78bLwvsdeMH5-11">
            <mxGeometry x="40" y="290" width="211.5" height="70" as="geometry" />
          </mxCell>
        </UserObject>
        <mxCell id="GGEF6i-dhOF42WEpArN_-37" value="" style="endArrow=blockThin;endFill=1;fontSize=11;edgeStyle=elbowEdgeStyle;elbow=vertical;rounded=0;" edge="1" target="GGEF6i-dhOF42WEpArN_-38" source="dNxyNK7c78bLwvsdeMH5-16" parent="dNxyNK7c78bLwvsdeMH5-11">
          <mxGeometry relative="1" as="geometry">
            <mxPoint x="1005" y="190" as="sourcePoint" />
          </mxGeometry>
        </mxCell>
        <UserObject label="BARRUTIA VALCARCEL MIGUEL GIANCARLO&lt;br&gt;&lt;font size=&quot;1&quot; color=&quot;#808080&quot;&gt;&lt;i&gt;Supervisor de Seguridad Patrominial&lt;/i&gt;&lt;/font&gt;" name="Evan Valet" position="HR Director" location="Office 4" email="me@example.com" placeholders="1" link="https://www.draw.io" id="GGEF6i-dhOF42WEpArN_-38">
          <mxCell style="label;image=https://cdn3.iconfinder.com/data/icons/user-avatars-1/512/users-9-2-128.png;whiteSpace=wrap;html=1;rounded=0;glass=0;treeFolding=1;treeMoving=1;" vertex="1" parent="dNxyNK7c78bLwvsdeMH5-11">
            <mxGeometry x="280" y="290" width="210" height="70" as="geometry" />
          </mxCell>
        </UserObject>
        <mxCell id="GGEF6i-dhOF42WEpArN_-39" style="edgeStyle=orthogonalEdgeStyle;rounded=0;orthogonalLoop=1;jettySize=auto;html=1;exitX=0.5;exitY=1;exitDx=0;exitDy=0;" edge="1" target="GGEF6i-dhOF42WEpArN_-40" source="GGEF6i-dhOF42WEpArN_-4" parent="dNxyNK7c78bLwvsdeMH5-11">
          <mxGeometry relative="1" as="geometry">
            <mxPoint x="1005" y="190" as="sourcePoint" />
          </mxGeometry>
        </mxCell>
        <UserObject label="UGARTE VALENZA SHIARMELY&lt;br&gt;&lt;i style=&quot;color: rgb(128, 128, 128); font-size: x-small;&quot;&gt;Jefe De Investigación y Desarrollo&lt;/i&gt;" name="Tessa Miller" position="CFO" location="Office 1" email="me@example.com" placeholders="1" link="https://www.draw.io" id="GGEF6i-dhOF42WEpArN_-40">
          <mxCell style="label;image=https://cdn3.iconfinder.com/data/icons/user-avatars-1/512/users-3-128.png;whiteSpace=wrap;html=1;rounded=0;glass=0;treeMoving=1;treeFolding=1;" vertex="1" parent="dNxyNK7c78bLwvsdeMH5-11">
            <mxGeometry x="510" y="290" width="211.5" height="70" as="geometry" />
          </mxCell>
        </UserObject>
        <mxCell id="GGEF6i-dhOF42WEpArN_-41" value="" style="endArrow=blockThin;endFill=1;fontSize=11;edgeStyle=elbowEdgeStyle;elbow=vertical;rounded=0;" edge="1" target="GGEF6i-dhOF42WEpArN_-42" source="dNxyNK7c78bLwvsdeMH5-18" parent="dNxyNK7c78bLwvsdeMH5-11">
          <mxGeometry relative="1" as="geometry">
            <mxPoint x="1005" y="190" as="sourcePoint" />
          </mxGeometry>
        </mxCell>
        <UserObject label="ACEVEDO USCATA DAVID&lt;br&gt;&lt;i style=&quot;color: gray&quot;&gt;&lt;font style=&quot;font-size: 10px;&quot;&gt;Jefe de Mantenimiento y proyectos&lt;/font&gt;&lt;/i&gt;" name="Alison Donovan" position="System Admin" location="Office 3" email="me@example.com" placeholders="1" link="https://www.draw.io" id="GGEF6i-dhOF42WEpArN_-42">
          <mxCell style="label;image=https://cdn3.iconfinder.com/data/icons/user-avatars-1/512/users-2-128.png;whiteSpace=wrap;html=1;rounded=0;glass=0;" vertex="1" parent="dNxyNK7c78bLwvsdeMH5-11">
            <mxGeometry x="740" y="290" width="200" height="70" as="geometry" />
          </mxCell>
        </UserObject>
        <mxCell id="GGEF6i-dhOF42WEpArN_-43" style="edgeStyle=orthogonalEdgeStyle;rounded=0;orthogonalLoop=1;jettySize=auto;html=1;exitX=0.5;exitY=1;exitDx=0;exitDy=0;" edge="1" target="GGEF6i-dhOF42WEpArN_-44" source="GGEF6i-dhOF42WEpArN_-8" parent="dNxyNK7c78bLwvsdeMH5-11">
          <mxGeometry relative="1" as="geometry">
            <mxPoint x="1005" y="190" as="sourcePoint" />
            <mxPoint x="656" y="260" as="targetPoint" />
          </mxGeometry>
        </mxCell>
        <UserObject label="WICHE CORIMANYA BETTY NOEMI&lt;br&gt;&lt;i style=&quot;color: rgb(128, 128, 128); font-size: x-small;&quot;&gt;Supervisor Logístico de Eventos&lt;br&gt;&lt;/i&gt;" name="Tessa Miller" position="CFO" location="Office 1" email="me@example.com" placeholders="1" link="https://www.draw.io" id="GGEF6i-dhOF42WEpArN_-44">
          <mxCell style="label;image=https://cdn3.iconfinder.com/data/icons/user-avatars-1/512/users-3-128.png;whiteSpace=wrap;html=1;rounded=0;glass=0;treeMoving=1;treeFolding=1;" vertex="1" parent="dNxyNK7c78bLwvsdeMH5-11">
            <mxGeometry x="970" y="290" width="190" height="70" as="geometry" />
          </mxCell>
        </UserObject>
        <mxCell id="GGEF6i-dhOF42WEpArN_-45" style="edgeStyle=orthogonalEdgeStyle;rounded=0;orthogonalLoop=1;jettySize=auto;html=1;exitX=0.5;exitY=1;exitDx=0;exitDy=0;" edge="1" target="GGEF6i-dhOF42WEpArN_-46" source="GGEF6i-dhOF42WEpArN_-10" parent="dNxyNK7c78bLwvsdeMH5-11">
          <mxGeometry relative="1" as="geometry">
            <mxPoint x="1005" y="190" as="sourcePoint" />
            <mxPoint x="1105" y="260" as="targetPoint" />
          </mxGeometry>
        </mxCell>
        <UserObject label="COLINA SANCHEZ NEYDA YUSMARY&lt;br&gt;&lt;i style=&quot;color: rgb(128, 128, 128); font-size: x-small;&quot;&gt;Administrador&lt;br&gt;&lt;/i&gt;" name="Tessa Miller" position="CFO" location="Office 1" email="me@example.com" placeholders="1" link="https://www.draw.io" id="GGEF6i-dhOF42WEpArN_-46">
          <mxCell style="label;image=https://cdn3.iconfinder.com/data/icons/user-avatars-1/512/users-3-128.png;whiteSpace=wrap;html=1;rounded=0;glass=0;treeMoving=1;treeFolding=1;" vertex="1" parent="dNxyNK7c78bLwvsdeMH5-11">
            <mxGeometry x="1190" y="290" width="180" height="70" as="geometry" />
          </mxCell>
        </UserObject>
        <mxCell id="GGEF6i-dhOF42WEpArN_-47" style="edgeStyle=orthogonalEdgeStyle;rounded=0;orthogonalLoop=1;jettySize=auto;html=1;exitX=0.5;exitY=1;exitDx=0;exitDy=0;" edge="1" target="GGEF6i-dhOF42WEpArN_-48" source="GGEF6i-dhOF42WEpArN_-12" parent="dNxyNK7c78bLwvsdeMH5-11">
          <mxGeometry relative="1" as="geometry">
            <mxPoint x="1005" y="190" as="sourcePoint" />
            <mxPoint x="1320" y="260" as="targetPoint" />
          </mxGeometry>
        </mxCell>
        <UserObject label="PINTO LINAREZ YULIANNY MARILIN&lt;br&gt;&lt;i style=&quot;color: rgb(128, 128, 128); font-size: x-small;&quot;&gt;Coordinador de Almacén&lt;br&gt;&lt;/i&gt;" name="Tessa Miller" position="CFO" location="Office 1" email="me@example.com" placeholders="1" link="https://www.draw.io" id="GGEF6i-dhOF42WEpArN_-48">
          <mxCell style="label;image=https://cdn3.iconfinder.com/data/icons/user-avatars-1/512/users-3-128.png;whiteSpace=wrap;html=1;rounded=0;glass=0;treeMoving=1;treeFolding=1;" vertex="1" parent="dNxyNK7c78bLwvsdeMH5-11">
            <mxGeometry x="1400" y="290" width="180" height="70" as="geometry" />
          </mxCell>
        </UserObject>
        <UserObject label="DE LA CRUZ VARGAS ESTHEFANY BRILLIT&lt;br&gt;&lt;i style=&quot;color: rgb(128, 128, 128); font-size: x-small;&quot;&gt;Asistente de Calidad&lt;br&gt;&lt;/i&gt;" name="Tessa Miller" position="CFO" location="Office 1" email="me@example.com" placeholders="1" link="https://www.draw.io" id="GGEF6i-dhOF42WEpArN_-52">
          <mxCell style="label;image=https://cdn3.iconfinder.com/data/icons/user-avatars-1/512/users-3-128.png;whiteSpace=wrap;html=1;rounded=0;glass=0;treeMoving=1;treeFolding=1;" vertex="1" parent="dNxyNK7c78bLwvsdeMH5-11">
            <mxGeometry x="1614" y="290" width="196" height="70" as="geometry" />
          </mxCell>
        </UserObject>
        <mxCell id="GGEF6i-dhOF42WEpArN_-15" style="edgeStyle=orthogonalEdgeStyle;rounded=0;orthogonalLoop=1;jettySize=auto;html=1;exitX=0.5;exitY=1;exitDx=0;exitDy=0;" edge="1" parent="1" source="1" target="GGEF6i-dhOF42WEpArN_-14">
          <mxGeometry relative="1" as="geometry">
            <mxPoint x="845" y="200" as="sourcePoint" />
            <mxPoint x="1530" y="260" as="targetPoint" />
          </mxGeometry>
        </mxCell>
        <mxCell id="GGEF6i-dhOF42WEpArN_-51" style="edgeStyle=orthogonalEdgeStyle;rounded=0;orthogonalLoop=1;jettySize=auto;html=1;exitX=0.5;exitY=1;exitDx=0;exitDy=0;" edge="1" target="GGEF6i-dhOF42WEpArN_-52" source="1" parent="1">
          <mxGeometry relative="1" as="geometry">
            <mxPoint x="885" y="280" as="sourcePoint" />
            <mxPoint x="1570" y="340" as="targetPoint" />
          </mxGeometry>
        </mxCell>
      </root>
    </mxGraphModel>
  </diagram>
</mxfile>
